<svg id="Layer_5" enable-background="new 0 0 64 64" height="512" viewBox="0 0 64 64" width="512" xmlns="http://www.w3.org/2000/svg" xmlns:xlink="http://www.w3.org/1999/xlink"><linearGradient id="SVGID_1_" gradientUnits="userSpaceOnUse" x1="32" x2="32" y1="63" y2="1"><stop offset="0" stop-color="#9f2fff"/><stop offset="1" stop-color="#0bb1d3"/></linearGradient><path d="m15 50c0 1.654 1.346 3 3 3s3-1.346 3-3-1.346-3-3-3-3 1.346-3 3zm3-1c.552 0 1 .449 1 1s-.448 1-1 1-1-.449-1-1 .448-1 1-1zm28 8.697v-4.697c0-.551-.448-1-1-1h-11v-2h11c1.654 0 3 1.346 3 3v4.697l2.168-3.252 1.664 1.109-4.832 7.249-4.832-7.248 1.664-1.109zm-14-11.697h22.697l-3.252-2.168 1.109-1.664 7.249 4.832-7.248 4.832-1.109-1.664 3.251-2.168h-22.697zm14-5v-4.697l-2.168 3.252-1.664-1.109 4.832-7.249 4.832 7.248-1.664 1.109-2.168-3.251v4.697c0 1.654-1.346 3-3 3h-11v-2h11c.552 0 1-.449 1-1zm8.409-29.991c-1.753-5.933-7.156-10.009-13.409-10.009-4.804 0-9.21 2.44-11.775 6.434-2.052-1.553-4.568-2.434-7.225-2.434-5.203 0-9.738 3.313-11.364 8.173-.541-.115-1.088-.173-1.636-.173-4.411 0-8 3.589-8 8 0 2.075.809 4.053 2.235 5.536-.149.46-.235.943-.235 1.441 0 .851.231 1.686.669 2.415l1.734 2.89c-.251.523-.403 1.101-.403 1.718 0 2.206 1.794 4 4 4h.08c.224 1.557.956 2.949 2.031 4h-.376c-2.611 0-4.735 2.124-4.735 4.734 0 .223.016.446.047.67l1.505 10.53c.331 2.318 2.346 4.066 4.687 4.066h11.521c2.341 0 4.356-1.748 4.688-4.065l1.505-10.534c.031-.22.047-.443.047-.667 0-2.61-2.124-4.734-4.734-4.734h-.376c1.074-1.051 1.806-2.443 2.031-4h.079c2.206 0 4-1.794 4-4 0-.79-.238-1.523-.635-2.145.32-1.265.522-2.554.596-3.855h23.039c4.963 0 9-4.038 9-9 0-4.825-3.817-8.776-8.591-8.991zm-47.409 23.991c0-1.103.897-2 2-2v4c-1.103 0-2-.897-2-2zm16.761 26h-11.522c-1.231 0-2.298-.84-2.624-2h16.77c-.327 1.16-1.393 2-2.624 2zm1.505-16c1.507 0 2.734 1.227 2.734 2.734 0 .13-.01.261-.027.387l-1.269 8.879h-17.408l-1.269-8.875c-.017-.13-.027-.26-.027-.391 0-1.507 1.227-2.734 2.734-2.734h5.266 4zm-.266-7c0 2.757-2.243 5-5 5h-4c-2.757 0-5-2.243-5-5v-8c0-1.654 1.346-3 3-3h1.171c.413 1.164 1.525 2 2.829 2h5c1.103 0 2 .897 2 2zm-2-11h-5c-.552 0-1-.449-1-1s.448-1 1-1h1v-2h-1c-1.304 0-2.416.836-2.829 2h-1.171c-2.757 0-5 2.243-5 5v1c-.824 0-1.59.251-2.226.679l-1.39-2.317c-.251-.418-.384-.897-.384-1.385 0-.903.448-1.741 1.199-2.242l2.09-1.393-1.053-2.107c-.154-.308-.236-.654-.236-.999 0-1.233 1.003-2.236 2.236-2.236h10.926c4.873 0 8.838 3.965 8.838 8.838 0 1.186-.12 2.368-.346 3.53-.506-.231-1.063-.368-1.654-.368 0-2.206-1.794-4-4-4zm4 10v-4c1.103 0 2 .897 2 2s-.897 2-2 2zm27-10h-23.042c-.43-5.585-5.103-10-10.795-10h-10.927c-2.336 0-4.236 1.9-4.236 4.236 0 .654.154 1.309.447 1.895l.264.527-.621.413c-.288.192-.545.416-.779.66-.839-1.053-1.311-2.363-1.311-3.731 0-3.309 2.691-6 6-6 .668 0 1.337.116 1.989.346l1.043.367.261-1.074c1.091-4.498 5.083-7.639 9.707-7.639 3.393 0 6.526 1.7 8.383 4.546l1.676-1.093c-.393-.602-.848-1.144-1.329-1.657 2.169-3.591 6.04-5.796 10.27-5.796 5.591 0 10.389 3.802 11.669 9.247l.19.807.981-.046c.054-.004.106-.008.16-.008 3.859 0 7 3.14 7 7s-3.141 7-7 7zm-3.726-15.454-3.82-3.82-1.273.595-.48-1.321h-5.402l-.479 1.321-1.273-.595-3.82 3.82.596 1.273-1.323.48v5.401l1.321.48-.596 1.273 3.82 3.82 1.273-.595.481 1.322h5.402l.479-1.321 1.273.595 3.82-3.82-.596-1.273 1.323-.48v-5.401l-1.321-.48zm-1.274 5.753-.823.299-.443.204-.425 1.031.56 1.198-1.838 1.837-1.201-.562-.416.183c-.07.031-.143.059-.239.097l-.421.165-.455 1.249h-2.598l-.479-1.258-.422-.165c-.071-.028-.144-.056-.214-.087l-.416-.183-1.201.562-1.838-1.837.56-1.198-.445-1.081-1.246-.454v-2.599l.822-.298.441-.196.428-1.039-.56-1.198 1.838-1.837 1.201.562 1.076-.444.455-1.25h2.598l.299.823.196.442 1.035.427 1.201-.562 1.838 1.837-.56 1.198.444 1.082 1.248.454zm-7-6.299c-2.757 0-5 2.243-5 5s2.243 5 5 5 5-2.243 5-5-2.243-5-5-5zm0 8c-1.654 0-3-1.346-3-3s1.346-3 3-3 3 1.346 3 3-1.346 3-3 3zm-28 14c-.552 0-1-.448-1-1s.448-1 1-1 1 .448 1 1-.448 1-1 1zm9-1c0 .552-.448 1-1 1s-1-.448-1-1 .448-1 1-1 1 .448 1 1zm-2.895 5.553 1.789.895-.105.211c-.722 1.444-2.174 2.341-3.789 2.341s-3.067-.897-3.789-2.342l-.105-.21 1.789-.895.105.211c.381.762 1.147 1.236 2 1.236s1.619-.474 2-1.236zm8.46-25.125-1.641 1.144c-.408-.585-.911-1.088-1.496-1.496l1.143-1.641c.781.543 1.45 1.213 1.994 1.993zm-6.565-3.428c.778 0 1.548.112 2.286.332l-.572 1.917c-.553-.166-1.129-.249-1.714-.249-2.636 0-5.001 1.762-5.752 4.285l-1.916-.57c1.001-3.365 4.154-5.715 7.668-5.715z" fill="url(#SVGID_1_)"/></svg>